<?xml version="1.0" encoding="UTF-8"?>
<svg id="Layer_1" xmlns="http://www.w3.org/2000/svg" version="1.1" viewBox="0 0 200 90">
  <!-- Generator: Adobe Illustrator 29.5.0, SVG Export Plug-In . SVG Version: 2.1.0 Build 137)  -->
  <defs>
    <style>
      .st0 {
		fill: currentColor;
	  }
    </style>
  </defs>
  <path class="st0" d="M0,73V0h200v90H0v-14c1.5,1.11,3.14,1.1,4.78.35s.62-2.58,2.21-2.35l.51,2.99c1.62-2.08,1.26-3.68,4.5-3,.05,1.98-.79,3.57,2,2.99l.02-10.41-3.89-.45-3.11,6.86-4-4.5,1.97-1.5,2.99.5c-2.16-4.08-7.49-1.88-7.06,2,.3,2.73,4.3,1.8,3.07,5.5l-3.99-2ZM16.87,42.14c-.52-.34-10.95-.39-12.36-.13-6.01,1.1.66,10.64,4.16,12.83,12.92,8.09,39.24-.06,35.12-18.13-2.17-9.53-21.79-7.81-21.82-13.19-.01-3.27,6.18-3.19,8.04-2.01.98.62,1.11,2.8,2.65,3.34,1.44.5,11.34.43,12.4-.29,1.39-.94.93-2.47.76-3.8C43.57,3.99,6.96,6.61,6.35,26.65c-.41,13.26,21.33,11.6,22.59,15.98,1.4,4.86-8.21,5.65-10.71,3.14-.88-.88-.81-3.28-1.36-3.63ZM94,11h-40l-1,11h19l-24.76,23.24-1.24,11.76h39.5l2.5-11h-22l25.04-23.46,2.96-11.54ZM100.99,40.01l-7.53.95-3.45,16.04,4.9-.1,2.6-10.91c1.63.01-.21,15.43,7.08,10.09,1.87-1.37,4.26-7.95,5.92-10.08l-1.5,11,4.9-.1,3.1-16.89c-8.84-2.14-9.2,5.5-13.5,11.01l-2.51-11ZM117,57h16v-3s-11-.01-11-.01l1.61-4.06,10.4.06v-2.99s-10.01,0-10.01,0v-2.99s18.01,0,18.01,0l-2.01,12.99h4.99s2.1-12.9,2.1-12.9l5.94-.57.97-3.52-33.38-.07-3.61,17.06ZM165.96,40.05c-9.58-2-11.43,11.43-16.96,16.94,5.35,2.03,6.21-2.35,7.62-2.84,1.91-.66,4.73.1,6.84-.22l.61,2.95,4.94.12-3.05-16.95ZM171,57h15v-3s-10-.01-10-.01l2.99-13.99c-1.78.25-4.77-1.06-5.3,1.21l-2.7,15.78ZM23.99,68l-3.63-2.84c-5.17.44-5.76,6.45-5.23,10.7l3.94.72,2.93-2.58c-.06,1.03-.5,3.96,1.49,2.99,1.46-.71,2.4-7.66,2.52-9.5.13-1.99-.22-1.57-2-1.48v1.99ZM43,68c0-.67.04-1.33,0-2h-6s2.99,2.49,2.99,2.49c-1.37.98-6.34,7.21-4.99,8.5h6s-1.98-4.46-1.98-4.46c1.53-1.4,2.4-3.19,3.98-4.54.02,3.01-2.31,6.91,1.02,8.56,1.22.61,3.21-.17,4-1.05,1.25-1.39.23-3.62,1.97-3.51l.51,4.99,3.49-4.99.02,4.99,2.49-2c1.62,2.21,3.95,2.23,6.51,2v-2.99s-3,0-3,0l1-7.99-2.49,3.01c-1.44-3.88-3.84-3.13-7.5-3.02v5c-2.33-.12.14-3.78-1.59-5.08-2.48-1.86-4.56.5-6.4,2.08ZM121.95,66.07c-6.91-2.87-9.42,4.29-2.97,7.43l-1.96,1.49-3.01-1.98.06,2.92c2.53,1.12,4.41,1.14,6.46-.93l.53,1.93,1.93.07.97-2.51,2.03-.47c.18,3.23,2.46,2.6,4.96,2.98l1.55-5,.98,4.03c.89,1.11,1.18,1.23,2.04,0,1.79-2.59.91-7.16,2.48-10.01l-3.5,4-.5-4.02-2.94.05-3.05,7.96-.52-8c-4.8-.69-3.32,6.41-6.48,8l-3-6.99,3.98,1.99-.04-2.92ZM161,66.01c-1.22-1.74-5.63-.26-6.5,1.99-1.38-4.01-7.06-1.25-10.49-1.99-.58,2.63.71,1.47,2.07,2.6l-1.07,8.4c3-1.56,2.97-6.09,2.99-9.01h2.99s-.99,9.01-.99,9.01l2-3.99c1.84.13,1.45,3.44,3.62,3.86s5.32-2.44,4.36-4.86l-3.98,2.99c-.12-1.44,0-2.84.27-4.26.1-.49.63-2.64.74-2.74,2.22-2.03,1.61,3.17,2.99,1.5.8-.96,1.66-2.55,1-3.5ZM184.93,66.09c-5.13-2.98-9.9,4.83-2.94,5.93l-1.5,2.98-1.05-2.05-5.44,1.06c-.64-19.73-8.78,2.17-8,2.99,2.2.42,2.65-1.29,3.01-2.99,2.78-.88,1.58,1.82,3.43,2.6,3.5,1.46,3.65-2.27,5.03-1.59l2.01,4.99,5.27-7.51-3.76-4.48,3.99.99-.06-2.91ZM32.99,66.01h-5.99s1.92,2.41,1.92,2.41l-1.92,8.58c4.16.05,2.82-5.56,4.02-8.28.48-1.08,2.82-.07,1.97-2.71ZM68,66.01l-2.99.66-.91,9.22c6.34,3.11,7.34-3.38,7.86-8.44.05-.48.07-.96.03-1.44-4.41-.1-2.51,6.28-4.49,8.99-2.7-1.53.87-8.72.49-8.99ZM80,65.99l-3.93.08c.57,1.13-3.18,11.02-.57,10.91,1.3-.05,1.73-3.74,1.51-4.98l1,5c2.78-3.69,4.78,1.7,5.82-1.67.29-.94,1.49-9,1.16-9.33-4.07-1.56-3.71,4.01-4.49,4.01l-.5-4.02ZM98.99,66.01h-12.99s-1.01,11-1.01,11l5.98-1.5-3.98-1.51,4-1.99-3-3.99,5.45-.02c2.25.28-3.32,10.01,1.53,9.01l1.12-8.94c1.93-.27,3.45.78,2.89-2.05ZM104,65.99l-3.87.14c-.08,3.14-2.34,5.49-3.31,8.21-.53,1.49-1.21,1.18.68,2.64.81-.1,1.26-2.77,2-3,4.35-1.39.67,3.82,4.5,3.02v-11ZM109,66.01h-2.99s-1.01,11-1.01,11h5.01s0-3,0-3h-3.01s2-8,2-8Z"/>
  <path d="M0,73l3.99,2c1.23-3.7-2.77-2.77-3.07-5.5-.43-3.88,4.9-6.08,7.06-2l-2.99-.5-1.97,1.5,4,4.5,3.11-6.86,3.89.45-.02,10.41c-2.79.57-1.95-1.02-2-2.99-3.24-.68-2.89.91-4.5,3l-.51-2.99c-1.6-.23-.65,1.64-2.21,2.35s-3.28.75-4.78-.35v-3Z"/>
  <path d="M16.87,42.14c.55.36.48,2.75,1.36,3.63,2.5,2.51,12.11,1.72,10.71-3.14-1.26-4.38-23-2.72-22.59-15.98.62-20.04,37.23-22.66,39.46-5.89.18,1.32.63,2.85-.76,3.8-1.06.72-10.96.79-12.4.29-1.55-.54-1.68-2.72-2.65-3.34-1.86-1.18-8.05-1.26-8.04,2.01.04,5.38,19.65,3.66,21.82,13.19,4.12,18.06-22.2,26.22-35.12,18.13-3.5-2.19-10.17-11.73-4.16-12.83,1.41-.26,11.84-.21,12.36.13Z"/>
  <polygon points="94 11 91.04 22.54 66 46 88 46 85.5 57 46 57 47.24 45.24 72 22 53 22 54 11 94 11"/>
  <polygon points="117 57 120.61 39.94 154 40.01 153.03 43.53 147.09 44.1 144.99 56.99 140 57 142 44 123.99 44 123.99 47 134.01 47 134.01 50 123.61 49.93 122 53.99 133.01 54 133 57 117 57"/>
  <path d="M100.99,40.01l2.51,11c4.3-5.51,4.66-13.14,13.5-11.01l-3.1,16.89-4.9.1,1.5-11c-1.66,2.14-4.05,8.71-5.92,10.08-7.29,5.34-5.45-10.07-7.08-10.09l-2.6,10.91-4.9.1,3.45-16.04,7.53-.95Z"/>
  <path d="M165.96,40.05l3.05,16.95-4.94-.12-.61-2.95c-2.1.31-4.92-.44-6.84.22-1.41.49-2.27,4.87-7.62,2.84,5.52-5.51,7.37-18.94,16.96-16.94Z"/>
  <path d="M121.95,66.07l.04,2.92-3.98-1.99,3,6.99c3.16-1.59,1.69-8.69,6.48-8l.52,8,3.05-7.96,2.94-.05.5,4.02,3.5-4c-1.57,2.85-.69,7.42-2.48,10.01-.85,1.23-1.14,1.11-2.04,0l-.98-4.03-1.55,5c-2.5-.38-4.79.25-4.96-2.98l-2.03.47-.97,2.51-1.93-.07-.53-1.93c-2.05,2.07-3.93,2.05-6.46.93l-.06-2.92,3.01,1.98,1.96-1.49c-6.45-3.14-3.94-10.3,2.97-7.43Z"/>
  <path d="M43,68c1.85-1.58,3.92-3.95,6.4-2.08,1.74,1.3-.74,4.96,1.59,5.08v-5c3.67-.12,6.07-.87,7.51,3.02l2.49-3.01-1,7.99h3s0,3,0,3c-2.56.24-4.89.21-6.51-2l-2.49,2-.02-4.99-3.49,4.99-.51-4.99c-1.74-.12-.73,2.12-1.97,3.51-.79.88-2.78,1.66-4,1.05-3.33-1.65-.99-5.55-1.02-8.56-1.57,1.35-2.44,3.14-3.98,4.54l1.98,4.46h-6c-1.35-1.29,3.62-7.52,4.99-8.5l-2.99-2.49h6c.03.66-.01,1.33,0,1.99Z"/>
  <path d="M171,57l2.7-15.78c.53-2.27,3.52-.96,5.3-1.21l-2.99,13.99h10s0,3.01,0,3.01h-15Z"/>
  <path d="M184.93,66.09l.06,2.91-3.99-.99,3.76,4.48-5.27,7.51-2.01-4.99c-1.38-.68-1.54,3.05-5.03,1.59-1.86-.77-.65-3.47-3.43-2.6-.37,1.7-.82,3.4-3.01,2.99-.78-.82,7.36-22.72,8-2.99l5.44-1.06,1.05,2.05,1.5-2.98c-6.96-1.1-2.19-8.91,2.94-5.93Z"/>
  <path d="M23.99,68v-1.99c1.79-.09,2.14-.51,2.01,1.48-.12,1.84-1.06,8.8-2.52,9.5-2,.97-1.55-1.96-1.49-2.99l-2.93,2.58-3.94-.72c-.53-4.25.06-10.26,5.23-10.7l3.63,2.84Z"/>
  <path d="M80,65.99l.5,4.02c.78,0,.42-5.57,4.49-4.01.33.33-.87,8.39-1.16,9.33-1.05,3.37-3.05-2.02-5.82,1.67l-1-5c.22,1.23-.22,4.92-1.51,4.98-2.61.11,1.14-9.78.57-10.91l3.93-.08Z"/>
  <path d="M98.99,66.01c.56,2.84-.95,1.78-2.89,2.05l-1.12,8.94c-4.85,1,.72-8.73-1.53-9.01l-5.45.02,3,3.99-4,1.99,3.98,1.51-5.98,1.5,1.01-10.99h12.99Z"/>
  <path d="M161,66.01c.66.94-.2,2.53-1,3.5-1.38,1.67-.77-3.54-2.99-1.5-.1.1-.64,2.24-.74,2.74-.27,1.42-.38,2.82-.27,4.26l3.98-2.99c.95,2.42-2.25,5.27-4.36,4.86s-1.78-3.73-3.62-3.86l-2,3.99.99-8.99h-2.99c-.02,2.91,0,7.44-2.99,8.99l1.07-8.4c-1.36-1.12-2.65.03-2.07-2.6,3.43.74,9.11-2.01,10.49,1.99.87-2.25,5.28-3.73,6.5-1.99Z"/>
  <path d="M104,65.99v11c-3.82.8-.15-4.4-4.5-3.02-.74.24-1.19,2.91-2,3-1.89-1.47-1.22-1.15-.68-2.64.97-2.72,3.23-5.06,3.31-8.21l3.87-.14Z"/>
  <path d="M68,66.01c.37.27-3.19,7.46-.49,8.99,1.98-2.71.08-9.09,4.49-8.99.04.48.02.96-.03,1.44-.52,5.07-1.52,11.55-7.86,8.44l.91-9.22,2.99-.66Z"/>
  <polygon points="109 66.01 106.99 73.99 110 74 110.01 77 105 77 106 65.99 109 66.01"/>
  <path d="M32.99,66.01c.85,2.64-1.49,1.63-1.97,2.71-1.21,2.72.13,8.32-4.02,8.28l1.92-8.58-1.92-2.41h5.99Z"/>
</svg>